<svg height="349" viewBox="0 0 760 349" width="760" xmlns="http://www.w3.org/2000/svg"><g fill="none" transform="translate(-176)"><g fill="#e5e5e5"><path d="m396.867461 320.214286h-15.531783v-2.795567h6.231203c.572626.001642 1.122271-.224893 1.52718-.629423.404908-.404529.631656-.95366.630013-1.525749v-7.487685c0-1.190269-.965808-2.155172-2.157193-2.155172h-6.231203v-1.465518c0-1.190268-.965808-2.155172-2.157192-2.155172-1.191385 0-2.157193.964904-2.157193 2.155172v1.465518h-75.551033v-1.465518c0-1.190268-.965808-2.155172-2.157192-2.155172-1.191385 0-2.157193.964904-2.157193 2.155172v1.465518h-7.550172c-1.191385 0-2.157192.964903-2.157192 2.155172v7.463054c0 1.190269.965807 2.155173 2.157192 2.155173h7.550172v2.820197h-16.998674c-.572625-.001642-1.122271.224893-1.527179.629423-.404909.404529-.631656.95366-.630013 1.525749v6.841133c0 1.190269.965808 2.155173 2.157192 2.155173h9.004737v3.208128c0 1.190268.965807 2.155172 2.157192 2.155172h1.232681v8.115764c0 1.190268.965808 2.155172 2.157192 2.155172 1.191385 0 2.157192-.964904 2.157192-2.155172v-8.140395h1.602486v8.140395c0 1.190268.965808 2.155172 2.157192 2.155172s2.157192-.964904 2.157192-2.155172v-8.140395h1.41142c1.191385 0 2.157193-.964903 2.157193-2.155172v-3.208128h64.530863v3.208128c0 1.190269.965808 2.155172 2.157192 2.155172h1.355949v8.140395c0 1.190268.965808 2.155172 2.157193 2.155172 1.191384 0 2.157192-.964904 2.157192-2.155172v-8.140395h1.602485v8.140395c0 1.190268.965808 2.155172 2.157192 2.155172 1.191385 0 2.157193-.964904 2.157193-2.155172v-8.140395h1.232681c1.191384 0 2.157192-.964903 2.157192-2.155172v-3.208128h8.825998c1.191384 0 2.157192-.964904 2.157192-2.155172v-6.841133c-.010045-1.172484-.958956-2.120506-2.132539-2.130542zm-103.378812 12.795566v-1.280788h8.530154v1.280788zm81.708276 0v-1.280788h8.505501v1.280788zm-83.43403-19.926108v-3.15271h93.646794v3.15271zm85.258398 4.310345v2.820197h-75.551033v-2.795567zm17.688976 9.636699h-112.383549v-2.506157h112.383549z"/><path d="m388.833794 283.016314h-7.835476v-4.785878c0-1.231836-.969844-2.230436-2.166206-2.230436-1.196363 0-2.166206.9986-2.166206 2.230436v4.785878h-75.866723v-4.785878c0-1.231836-.969844-2.230436-2.166206-2.230436-1.196363 0-2.166206.9986-2.166206 2.230436v4.785878h-6.300565c-1.196363 0-2.166206.9986-2.166206 2.230436v13.522814c0 1.231836.969843 2.230436 2.166206 2.230436h98.667588c1.196363 0 2.166206-.9986 2.166206-2.230436v-13.522814c0-1.231836-.969843-2.230436-2.166206-2.230436zm-2.166206 13.522814h-94.359933v-9.061942h94.359933z"/><path d="m308.788543 294h-10.577086c-1.221354 0-2.211457-.895431-2.211457-2s.990103-2 2.211457-2h10.577086c1.221354 0 2.211457.895431 2.211457 2s-.990103 2-2.211457 2z"/><path d="m320.079034 294h-1.158068c-1.06092 0-1.920966-.895431-1.920966-2s.860046-2 1.920966-2h1.158068c1.06092 0 1.920966.895431 1.920966 2s-.860046 2-1.920966 2z"/><path d="m1087.99843 349h-717.996855c-2.210009 0-4.001575-.895431-4.001575-2s1.791566-2 4.001575-2h717.996855c2.21 0 4.00157.895431 4.00157 2s-1.79157 2-4.00157 2z"/><path d="m440.343883 218.000066h-199.718868c-1.450761.003431-2.625019 1.180845-2.625015 2.63207v10.173605c-.000004 1.451225 1.174254 2.628639 2.625015 2.63207h9.13157v84.101795h-2.824069c-1.202404 0-2.177145.975051-2.177145 2.177836v27.104722c0 1.202786.974741 2.177836 2.177145 2.177836h10.450297c1.202405 0 2.177146-.97505 2.177146-2.177836v-19.15251h20.857052c1.138699-.086166 2.018671-1.03552 2.018671-2.177836 0-1.142315-.879972-2.091669-2.018671-2.177836h-20.850832v-3.57165c0-1.202786-.974741-2.177836-2.177145-2.177836h-3.278159v-84.126685h172.747148v84.126685h-3.048004c-1.202404 0-2.177145.97505-2.177145 2.177836v3.57165h-23.861512c-1.202404 0-2.177145.975051-2.177145 2.177836 0 1.202786.974741 2.177836 2.177145 2.177836h23.861512v19.15251c0 1.202786.974741 2.177836 2.177145 2.177836h10.475179c1.202405 0 2.177146-.97505 2.177146-2.177836v-27.079832c0-1.202786-.974741-2.177836-2.177146-2.177836h-3.048003v-84.126685h9.131569c1.451773-.003421 2.627816-1.179838 2.631236-2.63207v-10.173605c-.001637-.701886-.282801-1.374188-.781283-1.868156-.498481-.493969-1.173187-.768882-1.874834-.763914zm-8.260711 126.644262h-6.096007v-22.72416h6.096007zm-176.871283-22.72416v22.72416h-6.096007v-22.72416zm183.4276-92.838029h-196.285198v-6.726401h196.285198z"/><path d="m232.770741 196.479039h-27.314756c0-.559322 0-1.329944.031665-2.417515 0-1.398306.044332-3.250284.063332-3.871753 1.320496-4.20861 5.364043-7.01652 9.847872-6.838537s8.283048 3.297208 9.252824 7.59673c.301274 1.131082 1.459775 1.826172 2.623045 1.573801 1.16327-.25237 1.915191-1.361924 1.702478-2.51222-1.420162-6.284743-7.010785-10.818702-13.568152-11.003685-6.557366-.184982-12.404184 4.026329-14.189923 10.220634-.107663.372882-.107663.372882-.164661 4.779098 0 .826554 0 1.771187-.037999 2.485876h-3.799873c-1.224191 0-2.216593.973845-2.216593 2.175142 0 1.201298.992402 2.175142 2.216593 2.175142h4.38252l5.69981 14.070062c-1.22419.070361-2.158466 1.101245-2.086763 2.302543.071702 1.201297 1.122231 2.118102 2.346421 2.047741h4.813173v10.061585h-1.171627c-1.224191 0-2.216593.973844-2.216593 2.175142s.992402 2.175142 2.216593 2.175142h1.171627v72.171211h-2.57758c-1.168289-.00228-2.136617.88804-2.21026 2.032204l-2.533249 38.810748c-.040356.599574.17457 1.188709.593528 1.626927.418959.438218 1.004402.686244 1.616732.684938h15.528815c.61341-.000532 1.199332-.249774 1.619067-.688727.419736-.438954.635974-1.028598.597526-1.629353l-2.533249-38.816962c-.076691-1.142752-1.043209-2.031408-2.210259-2.032204h-3.40722v-72.19607h1.58328c1.224191 0 2.216593-.973845 2.216593-2.175142 0-1.201298-.992402-2.175142-2.216593-2.175142h-1.640278v-10.061586h5.9848c1.224191 0 2.216593-.973844 2.216593-2.175142 0-1.201297-.992402-2.175142-2.216593-2.175142h-.075997l5.69981-14.045202h4.376187c1.224191 0 2.216593-.973844 2.216593-2.175142s-.992402-2.175142-2.216593-2.175142zm-14.629512 113.728852 2.267257 34.460464h-3.597213v-15.1017c0-1.201298-.992402-2.175142-2.216593-2.175142-1.22419 0-2.216593.973844-2.216593 2.175142v15.1017h-2.767574l2.267258-34.460464zm-.050665-95.668959h-6.162128l-5.465485-13.516954h17.09943z"/><path d="m213.999996 320.999992c-1.104567 0-1.999996-.860989-1.999996-1.923074v-1.153844c0-1.062084.895429-1.923074 1.999996-1.923074s1.999996.86099 1.999996 1.923074v1.153844c.001523.510479-.208701 1.000472-.584104 1.361436-.375402.360964-.884995.563103-1.415892.561638z"/><path d="m390.683164 273.999876c-.588613.006246-1.155276-.223272-1.573761-.637426l-26.460847-26.542419c-.870924-.880102-.863792-2.299894.015929-3.171194.87972-.871301 2.298898-.864166 3.169822.015935l26.505448 26.510548c.643127.639233.836887 1.603654.490585 2.441843s-1.164144 1.3843-2.070718 1.382713z"/><path d="m361.807284 265.98755c-.575826.00365-1.129895-.220005-1.542132-.622496l-16.627668-16.645532c-.849979-.850892-.849979-2.230461 0-3.081353s2.228067-.850892 3.078046 0l16.640105 16.626857c.626856.623462.816348 1.563781.479971 2.381769-.336378.817989-1.132246 1.352232-2.015885 1.353205z"/><path d="m404.812205 265.9689c-.574798.006094-1.128162-.217849-1.536824-.621943l-16.637519-16.63074c-.850483-.850136-.850483-2.228479 0-3.078615.850482-.850136 2.229387-.850136 3.07987 0l16.637519 16.63074c.628033.623706.817245 1.5647.479071 2.382529s-1.136821 1.350674-2.022117 1.349126z"/><path d="m398.824031 348h-396.64806201c-1.20175449 0-2.17596899-.895431-2.17596899-2s.9742145-2 2.17596899-2h396.64806201c1.201755 0 2.175969.895431 2.175969 2s-.974214 2-2.175969 2z"/><path d="m844.84491 41.7751479h-28.77353c-1.284489-.0082949-2.555412-.2607921-3.7437-.743769-4.621205-1.8701629-7.070042-6.8934432-5.674077-11.6391932s6.185997-7.6816472 11.098747-6.8026214c-.417964 1.0685846-.719337 2.1783525-.898981 3.3103819-.18452 1.1630994.617321 2.2543787 1.791804 2.4385871.112699.0090817.225957.0090817.338657 0 1.067996-.0042617 1.971739-.7823489 2.124303-1.8289403.889736-5.9607959 6.106752-10.3435505 12.191652-10.2420657 1.190223 0 2.15509-.9553185 2.15509-2.1337636 0-1.1784452-.964867-2.1337637-2.15509-2.1337637-1.510698.0075096-3.01378.212497-4.470273.6096468-.242023-.0092566-.483802.0237622-.714258.0975434-1.616001.531894-3.138646 1.3093351-4.513374 2.3044648-1.455512.9996614-2.747221 2.2148479-3.829903 3.6030124-7.16753-1.9339446-14.618564 1.9826814-17.016113 8.9444961-2.397548 6.9618148 1.084667 14.5695414 7.95242 17.3739547 1.712439.694108 3.543533 1.0562888 5.393883 1.0668818h28.742743c1.190223 0 2.15509-.9553185 2.15509-2.1337637 0-1.1784451-.964867-2.1337636-2.15509-2.1337636z"/><path d="m615.874494 81h-10.748988c-1.173885 0-2.125506-.8954305-2.125506-2s.951621-2 2.125506-2h10.748988c1.173885 0 2.125506.8954305 2.125506 2s-.951621 2-2.125506 2z"/><path d="m556.097826 71h-1.195652c-1.050542 0-1.902174-.8954305-1.902174-2s.851632-2 1.902174-2h1.195652c1.050542 0 1.902174.8954305 1.902174 2s-.851632 2-1.902174 2z"/><path d="m625.789821 66.5716715h-28.132422c-1.803457-4.5650048-6.26693-7.5716715-11.24034-7.5716715-4.973409 0-9.436882 3.0066667-11.240339 7.5716715h-11.966541c-1.220648 0-2.210179.9746075-2.210179 2.1768468s.989531 2.1768468 2.210179 2.1768468h13.324223.113666c1.080793.0692619 2.052493-.6452268 2.292271-1.6855014.785971-3.4513162 3.902648-5.9002414 7.493854-5.8882869 3.591207.0119545 6.691006 2.4815734 7.453272 5.9380434.222526.9990387 1.121202 1.7107599 2.15966 1.7103796.15915-.0011567.317793-.0178234.47361-.0497565h.037889 29.231197c1.220648 0 2.210179-.9746075 2.210179-2.1768467 0-1.2022393-.989531-2.1768468-2.210179-2.1768468z"/><path d="m732.854223 6h-40.708446c-1.18508 0-2.145777-.8954305-2.145777-2s.960697-2 2.145777-2h40.708446c1.18508 0 2.145777.8954305 2.145777 2s-.960697 2-2.145777 2z"/><path d="m679.955209 6h-13.910418c-1.129307 0-2.044791-.8954305-2.044791-2s.915484-2 2.044791-2h13.910418c1.129307 0 2.044791.8954305 2.044791 2s-.915484 2-2.044791 2z"/><path d="m713.955209 16h-13.910418c-1.129307 0-2.044791-.8954305-2.044791-2s.915484-2 2.044791-2h13.910418c1.129307 0 2.044791.8954305 2.044791 2s-.915484 2-2.044791 2z"/></g><path d="m563 200h-7.430614c-3.471434-.000043-6.290464 2.75215-6.307822 6.158267l-1.261564 24.546419c.02051 2.361443 1.964656 4.271784 4.37132 4.295314h6.213205z" fill="#efefef"/><path d="m1026.26732 176.000249h-417.517724c-9.241945 0-16.810298 6.271831-22.878618 15.6299l-2.243852 3.645113c-.371909.658232-.750017 1.310254-1.028949 1.862921l-1.772767 3.663743c-12.669709 26.310642-17.262788 54.32896-18.297936 62.047659-.142565 1.068075-.241741 2.142359-.297527 3.216642-.092977 1.751145-.260336 4.856012-.384306 7.209501-.111641 2.089261-.061905 4.184041.148764 6.265622l.303725 2.949623c-3.173625 1.4034-9.297731 5.14787-9.297731 11.326555v11.41349c-.009672.458376.156748.902967.464887 1.241947l1.239697 3.179384v8.426609c0 6.079329 3.830665 8.693627 8.126217 8.886129.276997.046551.559799.046551.836796 0h82.910969c.030993-.558877.161161-3.483661.675635-7.134985h70.12349c.520672 3.651324.619848 6.576108.675635 7.134985h156.858925c.030992-.558877.154962-3.483661.669436-7.134985h120.32504c.462608 2.358262.795761 4.740167.997956 7.134985h37.314898c.98008.000005 1.77555-.794132 1.77896-1.775984v-139.365055c.03842-2.604098-.9721-5.113871-2.80333-6.962445s-4.32869-2.880015-6.92829-2.861354z" fill="#efefef"/><path d="m793 319c-1.104569 0-2-.984538-2-2.199027v-26.601946c0-1.214489.895431-2.199027 2-2.199027s2 .984538 2 2.199027v26.601946c0 1.214489-.895431 2.199027-2 2.199027z" fill="#e5e5e5"/><path d="m740 319c-1.104569 0-2-.984538-2-2.199027v-26.601946c0-1.214489.895431-2.199027 2-2.199027s2 .984538 2 2.199027v26.601946c0 1.214489-.895431 2.199027-2 2.199027z" fill="#e5e5e5"/><path d="m660.514522 305c-8.442743 10.748516-7.050722 25.957367 3.212488 35.098772 10.263209 9.141404 26.022428 9.209103 36.368903.156234 10.346475-9.052868 11.877645-24.249162 3.533612-35.069791" fill="#efefef"/><path d="m681.485655 347.999929c-10.821592.006142-20.711015-6.040854-25.519989-15.604476-4.808973-9.563622-3.705871-20.990016 2.84659-29.486193.457507-.640385 1.232552-.983735 2.021676-.895616.789123.08812 1.466762.593688 1.767594 1.318755.300833.725068.176992 1.554263-.323035 2.162925-7.559558 9.787418-6.320792 23.643719 2.85857 31.974755 9.179363 8.331036 23.279455 8.396025 32.537327.149969 9.257871-8.246056 10.627827-22.090333 3.161304-31.947008-.466052-.613022-.565187-1.424761-.260063-2.129441.305125-.704681.968153-1.195246 1.73933-1.286904.771176-.091659 1.53334.229514 1.999392.842537 6.469473 8.514415 7.501804 19.90583 2.665907 29.417332-4.835898 9.511502-14.708296 15.5072-25.494603 15.483365z" fill="#e5e5e5"/><path d="m1000.83326 276h-286.666515c-1.19666 0-2.166745-.895431-2.166745-2s.970085-2 2.166745-2h286.666515c1.19666 0 2.16674.895431 2.16674 2s-.97008 2-2.16674 2z" fill="#e5e5e5"/><path d="m1037.99764 187.085912c.06357-3.178331-1.15728-6.247019-3.38414-8.506231-2.2416-2.300177-5.31465-3.591389-8.51934-3.579601h-418.254736c-9.25205 0-17.578894 5.612615-24.769413 16.73183l-2.247814 3.666909-.043466.068598c-.378775.673514-.769969 1.365737-1.08665 1.995597l-.701665 1.440571h-24.396848c-4.586972.003269-8.314197 3.718755-8.351682 8.325379l-1.241886 24.65809v.137198c.046736 3.573679 2.918165 6.460271 6.476435 6.510633h6.116288c1.097255.001694 2.022625-.820539 2.154671-1.914525l2.918432-23.984576h5.812026c1.200281 0 2.1733-.977221 2.1733-2.182684s-.973019-2.182684-2.1733-2.182684h-5.271805l.620942-4.988991h13.077059c-12.51821 27.059042-16.765459 55.321678-17.52301 60.834514-.149026 1.116287-.254586 2.263755-.316681 3.411223l-.384984 7.240273c-.116995 2.208498-.063018 4.422785.161445 6.622887l.149026 1.453043c-3.290997 1.739911-9.189955 5.824648-9.189955 12.665802v11.462208c-.000031.8336.258214 1.646552.738922 2.326117l.956252 2.494496v8.057221c0 6.398381 3.91815 10.732568 10.003391 11.09427.204418.040734.412567.059548.620942.056126.174522-.000188.348816-.012691.521593-.037418h83.094582c1.154436-.001419 2.107521-.906657 2.1733-2.064195v-.212032c.093141-1.820982.235958-3.517239.409822-5.088771h6.830373c1.20028 0 2.1733-.977221 2.1733-2.182684s-.97302-2.182684-2.1733-2.182684h-6.172173c1.732431-9.578863 5.054475-13.208354 7.83009-13.208354h49.50157c3.986454 0 6.470225 6.011734 7.792834 13.208354h-5.513973c-1.200281 0-2.173301.977221-2.173301 2.182684s.97302 2.182684 2.173301 2.182684h6.103869c.192492 1.702493.335309 3.417459.422241 5.088771v.174615c.065779 1.157538 1.018864 2.062775 2.1733 2.064195h157.135817c1.153278-.001602 2.104485-.907644 2.167091-2.064195v-.174615c.856901-16.725594 5.309062-22.662493 8.860855-22.662493h36.176135c3.669773 0 5.892748 1.035215 7.147053 6.479452.225803.992004 1.104195 1.695682 2.117415 1.696257h8.426196c1.001722-.000046 1.873654-.687726 2.111206-1.665076 1.347446-5.506599 3.502118-6.510633 7.246404-6.510633h35.642124c6.681346 0 9.804688 16.987515 10.127579 22.843344.068933 1.155079 1.021123 2.056735 2.1733 2.057959h37.380761c2.18209.000003 3.95198-1.774741 3.95541-3.966248zm-482.354678 47.052425h-4.197574c-1.153295-.031931-2.084516-.956266-2.129835-2.114085l1.241886-24.645618v-.106016c.026801-2.210251 1.804333-3.995458 4.005082-4.022374h4.886821zm7.376802 40.847367.384984-7.240274c.055885-1.035216.149027-2.064195.285634-3.055757.745132-5.544017 5.11657-34.561238 18.131533-61.645225l.453289-.935436c.037256-.074835.074513-.14967.10556-.224505l1.204629-2.494495c.248378-.498899.620943-1.122523.956252-1.739911l2.198138-3.592074c1.201315-1.864422 2.52042-3.64957 3.949197-5.344457 2.28507 1.939471 5.843073 3.024576 8.376521 3.585838-9.016092 24.040702-9.829527 69.502886-9.866784 71.529664 0 4.134626-.987299 17.642321-13.698001 17.642321h-12.282251l-.055884-.536317c-.199722-1.976494-.247469-3.965508-.142817-5.949372zm-8.550384 32.428444c-.079327-.20405-.188123-.395265-.322891-.567498v-9.298233c3.001513.466618 5.324993 2.885867 5.681046 5.915208s-1.34269 5.925432-4.153526 7.081115zm479.18166-19.787587h-5.89896v-24.770342l5.89896-4.178281zm0-34.268135-9.31415 6.604178c-.57745.408571-.9204 1.074152-.91899 1.783564v28.063077c0 1.205462.97302 2.182683 2.1733 2.182683h8.07225v34.604892h-35.014968c-.086932-.717168-.198701-1.596477-.347728-2.588039h7.364386c1.20028 0 2.1733-.977221 2.1733-2.182684s-.97302-2.182684-2.1733-2.182684h-8.159193c-1.688964-7.838953-5.364946-17.947896-13.132942-17.947896h-35.642124c-5.812026 0-9.177537 2.463314-11.003109 8.175709h-5.11657c-1.744849-5.612615-5.172454-8.175709-10.928595-8.175709h-36.188554c-9.935087 0-12.418858 16.13315-13.083267 24.901303h-153.050013c-.620942-8.768153-3.179227-24.901303-13.083267-24.901303h-49.50157c-9.89783 0-12.418859 16.13315-13.083267 24.901303h-62.460649v-31.85471c0-1.205463-.97302-2.182684-2.173301-2.182684-1.20028 0-2.1733.977221-2.1733 2.182684v31.836001h-14.219593c-.15985.000861-.319507.011273-.478126.031181l-.267005-.031181c-2.266442-.093543-6.060403-1.103814-6.060403-6.741374v-4.770723c5.171048-1.311564 8.682879-6.130609 8.364085-11.477462-.318795-5.346853-4.378128-9.710577-9.668065-10.39303 1.378493-3.997429 6.047984-6.3672 7.643807-7.071895.165152-.074739.319673-.171208.459498-.286867h12.859728c7.625179 0 13.26955-3.960012 16.070003-10.807402h42.012998v31.000345c0 1.205463.97302 2.182684 2.1733 2.182684 1.200281 0 2.1733-.977221 2.1733-2.182684v-31.929545l54.493952-16.507325c17.04239-4.262677 34.540362-6.413554 52.10332-6.404618h170.666164.21112l107.603198-10.601607c1.1138-.106246 1.96399-1.046567 1.96218-2.170211v-47.644868c.00333-.579902-.22457-1.13702-.63287-1.54708-.4083-.410059-.96302-.638946-1.54043-.635604l-409.542905.542553c-1.200281 0-2.173301.977221-2.173301 2.182684s.97302 2.182684 2.173301 2.182684l29.122223-.037418c-7.010446 16.837846-8.519337 66.484547-8.767714 77.260768h-40.740066c.451416-2.2392.67198-4.519143.6582-6.803737 0-.498899.894158-49.94604 10.55603-72.340375.270642-.627799.232547-1.34672-.102911-1.942125-.335457-.595405-.929466-.998407-1.604682-1.088687-2.819081-.380411-6.830373-1.521643-8.693201-2.899852 4.433532-4.115918 9.165117-6.205058 14.145079-6.205058h418.254737c2.03897-.008119 3.99439.812971 5.42083 2.276228 1.40885 1.439246 2.17913 3.388998 2.13604 5.406819zm-395.646209 16.158096c.149027-5.681214.565058-18.265945 1.564777-31.70504 2.154671-29.060875 5.296643-40.217507 7.631388-44.414496l82.256309-.112253v54.037014c-12.858523.875719-25.614761 2.891639-38.119686 6.024207h-.099351zm95.799075-22.450461v-53.787564l88.173895-.112252v53.631657h-77.431583c-3.58077 0-7.161541.087308-10.742312.261923zm92.520496-.261922v-53.631658l86.696051-.118488v53.756382zm91.042651-.224505v-53.54435l103.256597-.130961v43.485296z" fill="#e5e5e5"/><path d="m682.006473 304.000001c-6.876324-.002518-13.07696 4.137742-15.71016 10.489914s-1.180311 13.665089 3.681094 18.528274c4.861405 4.863186 12.17379 6.318754 18.526926 3.68788 6.353136-2.630873 10.495667-8.829993 10.495667-15.706317-.010285-9.38201-7.611521-16.98603-16.993527-16.999751zm-4.861518 28.671129c.247605-1.839493-.384682-3.688288-1.706889-4.990907-1.322206-1.302618-3.180232-1.907242-5.015825-1.632211-1.395391-3.187439-1.41116-6.809906-.043574-10.009373.281919.046052.567134.068953.852789.068472h.11827c1.578212-.006998 3.086673-.651237 4.183022-1.786499 1.211836-1.359695 1.790865-3.16916 1.593532-4.979788 1.544278-.651914 3.203955-.986389 4.880193-.983508 1.737538.0026 3.455944.362809 5.04826 1.058205-.163421 1.758185.419319 3.504145 1.605982 4.81172 1.07979 1.129464 2.570701 1.773879 4.133224 1.786499h.10582c.231145-.001769.461937-.018402.690946-.049798 1.402813 3.21283 1.402813 6.865015 0 10.077846-1.728094-.129756-3.433729.45529-4.718349 1.618431-1.130309 1.076626-1.775048 2.566041-1.786499 4.126999-.005297.253701.007183.507461.037348.759418-3.161185 1.410685-6.764117 1.455722-9.959576.124494z" fill="#e5e5e5"/><path d="m883.420832 17.7188859h-.661617c-.043692-.1858357-.081142-.377866-.124834-.5698962v-.0681398c-.78337-2.9339097-2.143037-5.6853294-4.000914-8.09624335-2.547685-3.32070863-5.968664-5.87992172-9.886813-7.3962621h-.081141l-.717793-.26636455c-8.114771-2.85284563-17.154075-1.01173261-23.480704 4.78251732-6.326629 5.79424988-8.900255 14.58885268-6.685311 22.84506138.343004 1.1165492 1.515164 1.7631632 2.651736 1.4628119 1.136571-.3003513 1.829522-1.4398405 1.567636-2.5778263-2.661218-9.9780927 3.320579-20.21056715 13.369668-22.87018397 1.450871-.38307804 2.943006-.5910645 4.444072-.61945243.140077.02493507.282122.03737377.424434.03716714 2.465985-.00446206 4.908905.47117107 7.19041 1.39996251.174767.07433429.355775.14247406.530542.22300288h.049934c.555509.25397549 1.104776.53272909 1.64156.84245531 1.571047.90213315 3.002667 2.02459004 4.250581 3.33265406l.280875.3035317.205975.2291974c2.395994 2.7516656 3.935499 6.1345102 4.43159 9.7377923.062772.4705691.28251.9067251.624167 1.2389049.493801.5348375 1.226107.7864133 1.947403.6690087.215756-.0392538.425531-.1058749.624167-.1982248.474949-.072901.954998-.1081148 1.435586-.1053069 3.588071-.0895221 6.942871 1.759061 8.763452 4.8288926 1.820582 3.0698316 1.820582 6.8780528 0 9.9478844-1.820581 3.0698315-5.175381 4.9184147-8.763452 4.8288926h-4.706223c-1.206514 0-2.184587.970684-2.184587 2.1680835s.978073 2.1680835 2.184587 2.1680835h4.706223c5.160912.1072141 9.976703-2.5639698 12.588849-6.9826817 2.612147-4.4187118 2.612147-9.8939284 0-14.3126403-2.612146-4.4187118-7.427937-7.0898958-12.588849-6.9826817z" fill="#e5e5e5"/><path d="m861.9177 45h-7.8354c-1.150022 0-2.0823-.8954305-2.0823-2s.932278-2 2.0823-2h7.8354c1.150022 0 2.0823.8954305 2.0823 2s-.932278 2-2.0823 2z" fill="#e5e5e5"/><path d="m870.962747 45h-.925494c-1.125144 0-2.037253-.8954305-2.037253-2s.912109-2 2.037253-2h.925494c1.125144 0 2.037253.8954305 2.037253 2s-.912109 2-2.037253 2z" fill="#e5e5e5"/><path d="m922.895556 9.15004889h-19.702477c-1.467648-3.73725959-4.768916-6.15004889-8.414727-6.15004889s-6.947079 2.4127893-8.414727 6.15004889h-8.228682c-1.179096 0-2.134943 1.07038231-2.134943 2.39076581 0 1.3203836.955847 2.3907659 2.134943 2.3907659h9.521848.079298c1.031761.0676122 1.957834-.7044069 2.195941-1.8306436.2936-1.435734 1.084503-2.68204894 2.19871-3.46475502s2.460442-1.0376842 3.742533-.70883905c1.843236.48456547 3.26981 2.11935637 3.659903 4.19408637.214951 1.0972143 1.083036 1.8788766 2.086144 1.8784589.153873.0017294.307403-.0166094.457488-.0546461h.048799 20.73945c1.179096 0 2.134943-1.0703823 2.134943-2.3907658 0-1.3203836-.955847-2.39076589-2.134943-2.39076589z" fill="#e5e5e5"/><path d="m930.962747 10h-.925494c-1.125144 0-2.037253.8954305-2.037253 2s.912109 2 2.037253 2h.925494c1.125144 0 2.037253-.8954305 2.037253-2s-.912109-2-2.037253-2z" fill="#e5e5e5"/><path d="m871.193248 108c-1.211297 0-2.193248-.971648-2.193248-2.170237.006903-4.873711 3.997999-8.8229323 8.923388-8.829763h19.883364c1.211297 0 2.193248.9716481 2.193248 2.1702368 0 1.1985882-.981951 2.1702372-2.193248 2.1702372h-19.883364c-2.504225.003415-4.533439 2.011339-4.536891 4.489289 0 1.198589-.981951 2.170237-2.193249 2.170237z" fill="#e5e5e5"/><path d="m937.784383 97.0000022h-25.667952c-5.026117-.0033925-9.104436 3.9082798-9.111484 8.7391738-.006596.085802-.006596.171955 0 .257757-.006265.085813-.006265.171943 0 .257756.003516 4.826106 4.071201 8.738543 9.092329 8.745311 1.23423 0 2.234772-.961679 2.234772-2.147971s-1.000542-2.147971-2.234772-2.147971c-2.554126-.003386-4.622788-1.994445-4.622785-4.449369 0-.085919 0-.171838 0-.257756 0-.085919 0-.165701 0-.257757.003517-2.452527 2.071149-4.439851 4.622785-4.443232h25.667952c1.234231 0 2.234772-.961679 2.234772-2.1479707s-1.000541-2.1479711-2.234772-2.1479711z" fill="#e5e5e5"/><path d="m924.823975 84.7300801h-21.816203c-.968986.0016196-1.89885-.3749095-2.58461-1.046584-.68576-.6716746-1.071114-1.5833482-1.071112-2.5340489.003414-.0487416.003414-.0976557 0-.1463973.002987-.048755.002987-.0976421 0-.1463972 0-1.9808978 1.636722-3.5867328 3.655722-3.5867328.095221.0063158.190769.0063158.285991 0 .097308.0059947.194902.0059947.292209 0 2.01758.003358 3.6523 1.6072276 3.655722 3.5867328 0 1.1791058.97424 2.13496 2.176025 2.13496s2.176025-.9558542 2.176025-2.13496c-.006847-4.3363238-3.588041-7.8499349-8.007772-7.8566527-.095924.0038017-.191475.0139916-.285991.0304994-.096203-.0191977-.194043-.0294098-.292209-.0304994-4.42115.0033639-8.004343 3.5189374-8.007772 7.8566527v.1463972.1463973c.003432 4.3367271 3.587628 7.8505541 8.007772 7.8505528h21.816203c1.201785 0 2.176025-.9558541 2.176025-2.13496 0-1.1791058-.97424-2.1349599-2.176025-2.1349599z" fill="#e5e5e5"/><path d="m938.72593 322h-6.45186c-1.255934 0-2.27407-.895431-2.27407-2s1.018136-2 2.27407-2h6.45186c1.255934 0 2.27407.895431 2.27407 2s-1.018136 2-2.27407 2z" fill="#e5e5e5"/><path d="m884.376015 305.092927c-8.340129 10.829811-6.825833 26.041507 3.496167 35.120355 10.322 9.078849 26.063792 9.044968 36.344226-.078223 10.280434-9.12319 11.725241-24.341255 3.335733-35.135059" fill="#efefef"/><path d="m905.424629 347.999993c-10.776255-.041709-20.609617-6.076347-25.421568-15.600966-4.811951-9.52462-3.781668-20.914513 2.663526-29.445567.467152-.615265 1.231114-.937614 2.004111-.84562.772996.091994 1.437589.584354 1.743434 1.291613.305844.707259.206475 1.521967-.260677 2.137232-5.846214 7.734388-6.401411 18.185478-1.406802 26.481792s14.555884 12.804805 24.22711 11.423968c8.456656-1.204681 15.639687-6.733128 18.889715-14.538541s2.083367-16.726149-3.06805-23.459477c-.722153-.951117-.527013-2.300425.435859-3.013763s2.328855-.52058 3.05101.430538c6.496165 8.549009 7.541896 19.990788 2.700822 29.550829s-14.73706 15.59554-25.55849 15.587962z" fill="#e5e5e5"/><path d="m906 304c-9.388841 0-17 7.611159-17 17s7.611159 17 17 17 17-7.611159 17-17c-.010292-9.384574-7.615426-16.989708-17-17zm-4.855364 28.671549c.214525-1.567486-.212078-3.155254-1.183311-4.404149s-2.405032-2.053393-3.97707-2.231516c-.518332-.071852-1.044099-.071852-1.562431 0-1.395411-3.187486-1.411181-6.810006-.043574-10.00952.257465.040015.51755.060822.778103.062248 3.015901.043797 5.570953-2.212087 5.901135-5.210179.066748-.50617.066748-1.018913 0-1.525083 3.196928-1.361293 6.813864-1.343276 9.997071.049799-.163424 1.758211.419324 3.504197 1.606005 4.811791 1.081863 1.126521 2.571485 1.770378 4.133284 1.786525h.105822c.231148-.001769.461943-.018402.690956-.049799 1.402834 3.212878 1.402834 6.865116 0 10.077993-1.729935-.129278-3.437335.455602-4.724643 1.618455-1.125647 1.079355-1.767633 2.567596-1.7803 4.12706-.005441.253706.00704.50748.037349.759429-3.161232 1.410706-6.764216 1.455743-9.959722.124496z" fill="#e5e5e5"/><path d="m848.000004 318.999991c-.530897.001675-1.04049-.22947-1.415892-.642231-.375403-.412761-.585627-.973066-.584104-1.556796v-26.601937c0-1.214489.895429-2.199027 1.999996-2.199027s1.999996.984538 1.999996 2.199027v26.601937c0 1.214489-.895429 2.199027-1.999996 2.199027z" fill="#e5e5e5"/></g></svg>