<svg width="116" height="27" viewBox="0 0 116 27" fill="none" xmlns="http://www.w3.org/2000/svg">
<rect y="5.02124" width="22.035" height="18.0784" fill="white"/>
<path fill-rule="evenodd" clip-rule="evenodd" d="M112.617 15.0225C113.738 14.3966 114.552 13.701 115.06 12.9358C115.568 12.1711 115.823 11.1931 115.823 10.0013C115.824 9.01552 115.598 8.06533 115.146 7.1507C114.693 6.23672 113.935 5.56349 112.872 5.13145C111.809 4.6994 110.743 4.48316 109.675 4.48273L103.54 4.47969L103.531 23.7229L107.653 23.7248L107.66 7.56279L109.272 7.56366C110.76 7.56431 111.504 8.48436 111.503 10.3229C111.503 11.1345 111.326 11.8045 110.971 12.3331C110.669 12.7827 110.044 13.0393 109.033 13.1063L109.032 15.6493L111.805 23.7268L116 23.7289L112.617 15.0225ZM92.0253 12.8248L92.0249 14.0572C92.0238 16.0808 92.0892 17.4136 92.2212 18.0558C92.3532 18.6976 92.6354 19.2034 93.0677 19.5736C93.5003 19.9436 94.0164 20.1286 94.6168 20.1289C95.1055 20.1291 95.5533 19.9501 95.9602 19.5903C96.3676 19.2311 96.6529 18.6841 96.8162 17.95C96.979 17.2156 97.0613 15.9088 97.0622 14.0286C97.063 12.3447 96.9949 11.1455 96.8579 10.4312C96.7206 9.71768 96.4439 9.13966 96.0266 8.69742C95.6094 8.25583 95.101 8.03461 94.5005 8.03439C93.6254 8.03396 92.994 8.41655 92.6073 9.18131C92.2199 9.94671 92.0262 11.1609 92.0253 12.8248ZM88.5473 8.04693C89.128 6.78397 89.8991 5.80363 90.8613 5.10524C91.8233 4.40729 93.0368 4.05874 94.5023 4.05939C95.7132 4.06005 96.6899 4.26327 97.4326 4.66951C98.1751 5.07574 98.8648 5.66677 99.5002 6.44215C100.136 7.21819 100.601 8.17858 100.895 9.32398C101.19 10.4696 101.337 11.9874 101.336 13.8769C101.334 17.7495 100.694 20.422 99.4166 21.8952C98.1386 23.3692 96.4874 24.1046 94.4623 24.1038C92.3962 24.1027 90.7482 23.3392 89.5175 21.8138C88.2868 20.2878 87.6724 17.6812 87.6741 13.9934C87.6754 11.292 87.9665 9.3101 88.5473 8.04693ZM85.4772 8.2302L80.6532 8.22803L80.6515 12.157L84.7884 12.159L84.7867 15.7329L80.6498 15.7309L80.6459 23.7121L76.5552 23.7101L76.5642 4.46672L85.4789 4.47106L85.4772 8.2302ZM73.4616 9.88872C72.3732 8.60408 71.3306 7.96143 70.3331 7.961C69.8851 7.96078 69.4859 8.10979 69.1348 8.40779C68.7836 8.70537 68.6079 9.03873 68.6077 9.40853C68.6075 10.0763 69.1615 10.8675 70.2703 11.782C71.4297 12.7176 72.2537 13.4548 72.7421 13.994C73.2301 14.5336 73.6218 15.1681 73.9165 15.8979C74.2112 16.6273 74.3585 17.4231 74.358 18.2856C74.3572 19.9808 73.8197 21.3722 72.7455 22.4603C71.6713 23.5491 70.2899 24.0922 68.6008 24.0914C67.2166 24.0907 65.8632 23.5919 64.5409 22.5952L64.543 18.0501C65.8144 19.4477 67.0864 20.1466 68.3581 20.1472C68.928 20.1474 69.4036 19.9889 69.7858 19.6703C70.1674 19.3521 70.3583 18.9619 70.3585 18.4993C70.3589 17.8115 69.8711 17.0463 68.8945 16.2033C67.3381 14.8468 66.3183 13.8372 65.8354 13.1744C65.3522 12.5116 64.9912 11.844 64.7526 11.171C64.5136 10.4984 64.3945 9.8178 64.3949 9.12939C64.3955 7.65019 64.9095 6.42802 65.9382 5.46307C66.9664 4.49878 68.2745 4.0162 69.8619 4.01685C71.0625 4.0175 72.2633 4.36756 73.464 5.06638L73.4616 9.88872ZM62.1905 18.2797C62.1896 20.0879 61.652 21.5077 60.5784 22.539C59.5042 23.5711 58.0157 24.0863 56.1132 24.0852C54.1389 24.0843 52.6194 23.5547 51.5568 22.4965C50.4942 21.438 49.963 19.9226 49.9639 17.9504L49.9703 4.45399L54.1223 4.45594L54.1163 17.2898C54.1159 18.194 54.2913 18.8902 54.6421 19.3778C54.9925 19.8658 55.4837 20.11 56.1151 20.1104C56.7048 20.1107 57.1702 19.8747 57.5116 19.4023C57.8523 18.9301 58.0232 18.2931 58.0234 17.4924L58.0297 4.45789L62.1971 4.45984L62.1905 18.2797ZM47.0935 15.8991C46.6457 15.1495 45.8677 14.5175 44.7587 14.003C45.6749 13.4799 46.3418 12.8589 46.759 12.1399C47.1769 11.4214 47.3857 10.4863 47.3861 9.33595C47.3867 7.91835 46.8611 6.75018 45.8084 5.83013C44.7557 4.91073 43.4048 4.45006 41.7562 4.44941L35.0647 4.44615L35.0557 23.6895L42.724 23.6932C44.1383 23.6939 45.3316 23.2271 46.3041 22.293C47.2767 21.3586 47.7629 20.2085 47.7636 18.8425C47.7642 17.6303 47.5407 16.6495 47.0935 15.8991ZM42.8608 19.8727C42.4719 20.3043 41.9248 20.5249 41.2192 20.5346L39.1787 20.5336L39.1849 7.53032L40.5668 7.53097C42.2947 7.53184 43.1587 8.39506 43.1579 10.1202C43.1574 10.8704 42.95 11.469 42.5355 11.9152C42.1215 12.3616 41.5668 12.5849 40.871 12.5847L40.5571 12.5845L40.5556 15.4963L40.8693 15.4965C42.5867 15.4971 43.4449 16.3452 43.444 18.04C43.4436 18.8307 43.2492 19.4419 42.8608 19.8727Z" fill="white"/>
<mask id="mask0" mask-type="alpha" maskUnits="userSpaceOnUse" x="0" y="0" width="28" height="27">
<path fill-rule="evenodd" clip-rule="evenodd" d="M0 0.112793H27.9667V26.1128H0V0.112793Z" fill="white"/>
</mask>
<g mask="url(#mask0)">
<path fill-rule="evenodd" clip-rule="evenodd" d="M16.6679 15.4459C17.7658 15.4478 18.7493 15.4507 19.3173 15.4529C18.7643 13.4439 17.1831 10.5144 15.5152 8.39576C15.0165 7.76251 14.4443 7.21174 13.4334 7.12687L0.00743466 7.12034L0.00634766 9.56302L12.0951 9.56889C12.3321 9.56889 12.7927 9.63265 12.7927 9.63265C14.4276 9.96124 15.5402 13.1157 16.6679 15.4459ZM11.8937 19.0998C11.2978 19.0994 10.8115 19.5899 10.811 20.194C10.8106 20.3191 10.8321 20.439 10.8704 20.5511C11.0158 20.9789 11.4156 21.289 11.8876 21.2901C12.3602 21.2903 12.762 20.9828 12.9107 20.5558C12.95 20.4431 12.9727 20.3226 12.9731 20.1966C12.9733 19.5925 12.4889 19.1011 11.8937 19.0998ZM14.1828 20.5161C14.0046 21.6788 13.0178 22.5726 11.8297 22.5719H11.8273C11.1929 22.5708 10.5968 22.3171 10.1492 21.8573C9.78743 21.4856 9.56003 21.0149 9.48589 20.5055C9.46807 20.3843 9.45654 20.2618 9.45654 20.1371C9.46089 18.8007 10.5244 17.7138 11.839 17.7144C12.4754 17.7155 13.073 17.969 13.5217 18.429C13.97 18.8884 14.2159 19.4993 14.2143 20.1484C14.2139 20.2737 14.2013 20.3958 14.1828 20.5161ZM25.3258 5.77109C22.3292 0.121933 20.6295 0.121063 19.9897 0.120845L3.24078 0.112793C1.45984 0.111923 0.0102182 1.56404 0.00934859 3.34975L0.00826159 5.88099L13.5558 5.88752C14.1138 5.88904 14.7684 5.94801 15.4508 6.57864L18.7336 6.58909C19.1997 6.58974 19.6386 6.77667 19.9695 7.11592C20.3004 7.45518 20.4821 7.90498 20.4806 8.38242L20.4791 8.46097L20.4784 9.93572C20.478 10.4314 20.0556 10.8601 19.4736 10.9554L19.3114 10.9822L19.3188 8.31452L19.6577 8.31474C19.6271 7.82381 19.2227 7.42863 18.7299 7.42754L16.2609 7.42167C18.5103 10.0164 20.7802 14.6037 20.7778 16.4201C20.7778 16.4201 20.7776 16.5195 20.7769 16.6816L19.4019 16.6808L19.4014 17.6028L20.7743 17.6052C20.7717 18.4704 20.7687 19.5158 20.7687 19.6566C20.7684 19.9034 20.7154 20.3649 20.021 20.3623C19.876 20.3623 18.0109 20.3577 14.988 20.3508C15.0019 20.23 15.0108 20.1075 15.011 19.9832C15.0134 19.1173 14.6852 18.303 14.0873 17.69C13.489 17.077 12.6925 16.7386 11.8326 16.7376C10.0932 16.7367 8.67361 18.1853 8.66839 19.9673C8.66817 20.0918 8.67644 20.2006 8.68948 20.3223C6.34482 20.3168 2.81011 20.3238 0.00130479 20.3183L3.91389e-07 22.8655C-0.000869209 24.6505 1.44745 26.1039 3.22839 26.1048L19.9773 26.1129C20.6182 26.1131 22.3205 26.1139 25.3228 20.398C26.5419 18.0772 27.9659 14.7621 27.9668 13.0582C27.9674 11.3552 26.5448 8.06819 25.3258 5.77109ZM11.9479 12.3829L0.00482933 12.3772L0.00439453 13.3993L12.9764 13.4057L12.7203 12.8318C12.5586 12.5539 12.2649 12.3831 11.9479 12.3829ZM6.12638 16.8872L6.20052 16.7607L0.00287621 16.7577L0.00244141 17.3417L5.19895 17.3444C5.60006 17.3444 5.96355 17.1653 6.12638 16.8872Z" fill="#F9253F"/>
</g>
</svg>
