<?xml version="1.0" ?>
<!DOCTYPE svg  PUBLIC '-//W3C//DTD SVG 1.1//EN'  'http://www.w3.org/Graphics/SVG/1.1/DTD/svg11.dtd'>
<!-- Uploaded to: SVG Repo, www.svgrepo.com, Generator: SVG Repo Mixer Tools -->
<svg fill="#000000" width="800px" height="800px" viewBox="0 0 512 512" enable-background="new 0 0 512 512" id="Layer_1" version="1.1" xml:space="preserve" xmlns="http://www.w3.org/2000/svg" xmlns:xlink="http://www.w3.org/1999/xlink">
<g>
<g>
<path d="M171.534,187.347h-0.362c-5.523,0-10-4.477-10-10s4.477-10,10-10h0.362c5.523,0,10,4.477,10,10    S177.057,187.347,171.534,187.347z"/>
</g>
<g>
<path d="M171.354,226.22h-0.363c-5.523,0-10-4.477-10-10s4.477-10,10-10h0.363c5.523,0,10,4.477,10,10    S176.876,226.22,171.354,226.22z"/>
</g>
<g>
<path d="M256.272,187.347h-0.363c-5.523,0-10-4.477-10-10s4.477-10,10-10h0.363c5.522,0,10,4.477,10,10    S261.795,187.347,256.272,187.347z"/>
</g>
<g>
<path d="M256.091,226.22h-0.363c-5.523,0-10-4.477-10-10s4.477-10,10-10h0.363c5.522,0,10,4.477,10,10    S261.613,226.22,256.091,226.22z"/>
</g>
<g>
<path d="M343.462,187.347h-0.364c-5.522,0-10-4.477-10-10s4.478-10,10-10h0.364c5.522,0,10,4.477,10,10    S348.984,187.347,343.462,187.347z"/>
</g>
<g>
<path d="M343.279,226.22h-0.362c-5.522,0-10-4.477-10-10s4.478-10,10-10h0.362c5.522,0,10,4.477,10,10    S348.802,226.22,343.279,226.22z"/>
</g>
<g>
<path d="M385.695,297.062H126.305c-5.523,0-10-4.477-10-10v-66.482c0-1.698-1.381-3.079-3.079-3.079H95.243    c-5.523,0-10-4.477-10-10v-49.044c0-12.726,10.353-23.079,23.078-23.079h295.357c12.726,0,23.078,10.353,23.078,23.079V207.5    c0,5.523-4.478,10-10,10h-17.982c-1.698,0-3.079,1.381-3.079,3.079v66.482C395.695,292.584,391.218,297.062,385.695,297.062z     M136.305,277.062h239.391v-56.482c0-12.726,10.354-23.079,23.079-23.079h7.982v-39.044c0-1.698-1.381-3.079-3.078-3.079H108.321    c-1.697,0-3.078,1.381-3.078,3.079V197.5h7.982c12.726,0,23.079,10.353,23.079,23.079V277.062z"/>
</g>
<g>
<path d="M434.74,376.623H77.26c-12.725,0-23.078-10.353-23.078-23.079V220.579c0-12.726,10.353-23.079,23.078-23.079h35.966    c12.726,0,23.079,10.353,23.079,23.079v56.482h239.391v-56.482c0-12.726,10.354-23.079,23.079-23.079h35.966    c12.726,0,23.078,10.353,23.078,23.079v132.965C457.818,366.27,447.466,376.623,434.74,376.623z M77.26,217.5    c-1.697,0-3.078,1.381-3.078,3.079v132.965c0,1.697,1.381,3.079,3.078,3.079h357.48c1.697,0,3.078-1.381,3.078-3.079V220.579    c0-1.697-1.381-3.079-3.078-3.079h-35.966c-1.698,0-3.079,1.381-3.079,3.079v66.482c0,5.523-4.478,10-10,10H126.305    c-5.523,0-10-4.477-10-10v-66.482c0-1.697-1.381-3.079-3.079-3.079H77.26z"/>
</g>
</g>
</svg>