<?xml version="1.0" standalone="no"?>
<!DOCTYPE svg PUBLIC "-//W3C//DTD SVG 20010904//EN"
 "http://www.w3.org/TR/2001/REC-SVG-20010904/DTD/svg10.dtd">
<svg version="1.0" xmlns="http://www.w3.org/2000/svg"
 width="512.000000pt" height="512.000000pt" viewBox="0 0 512.000000 512.000000"
 preserveAspectRatio="xMidYMid meet">

<g transform="translate(0.000000,512.000000) scale(0.100000,-0.100000)"
fill="#000000" stroke="none">
<path d="M2410 5114 c-14 -2 -65 -9 -115 -15 -555 -69 -1091 -418 -1395 -908
-173 -280 -278 -602 -297 -919 -6 -100 -7 -105 -41 -145 -39 -47 -77 -125 -87
-180 -7 -34 -13 -39 -90 -76 -138 -67 -230 -187 -255 -334 -18 -103 -8 -608
13 -673 40 -122 142 -230 264 -279 55 -23 57 -25 70 -76 31 -120 102 -211 201
-257 54 -26 65 -27 207 -27 141 0 153 2 205 26 111 52 189 166 210 305 7 47
10 292 7 725 -3 570 -5 660 -19 700 -22 63 -42 100 -74 138 -26 31 -27 35 -21
124 27 447 293 869 693 1101 206 119 425 177 674 177 249 0 468 -58 674 -177
400 -232 666 -654 693 -1101 6 -89 5 -93 -21 -124 -32 -38 -52 -75 -74 -138
-14 -40 -16 -129 -19 -700 -3 -431 0 -679 7 -725 25 -165 139 -303 270 -325
l35 -6 -1 -215 c-1 -197 -3 -220 -23 -272 -47 -122 -136 -215 -248 -259 -54
-22 -75 -24 -283 -27 l-226 -3 -17 36 c-29 60 -102 130 -170 161 -61 29 -64
29 -247 29 -168 -1 -190 -3 -241 -23 -80 -32 -142 -90 -181 -169 -27 -56 -32
-77 -32 -137 0 -39 5 -90 12 -112 29 -100 143 -202 248 -224 33 -7 122 -10
222 -8 156 3 171 5 224 30 68 32 138 99 163 156 l19 42 210 0 c250 0 314 11
436 72 124 62 222 162 283 289 25 52 50 118 56 147 6 29 11 149 11 267 l0 215
28 6 c75 16 159 67 198 121 33 45 63 108 77 164 13 49 15 51 70 74 122 49 224
157 264 279 21 65 31 570 13 673 -24 140 -116 265 -242 328 -39 19 -76 35 -83
35 -7 0 -16 19 -19 43 -9 57 -45 133 -90 185 -33 40 -36 49 -36 104 0 144 -60
433 -125 606 -101 266 -252 500 -455 702 -300 301 -657 484 -1080 555 -91 15
-397 28 -450 19z m435 -237 c398 -74 728 -255 996 -545 248 -268 421 -655 454
-1014 l7 -78 -75 0 c-86 0 -79 -9 -92 115 -22 205 -118 464 -241 652 -302 465
-791 733 -1334 733 -539 0 -1030 -268 -1330 -725 -125 -192 -222 -454 -245
-660 -13 -124 -6 -115 -92 -115 l-75 0 7 78 c27 292 142 597 324 853 269 378
700 644 1151 708 41 6 86 13 100 15 53 9 369 -3 445 -17z m-1841 -1862 c19 -9
43 -34 57 -58 l24 -42 0 -680 0 -680 -22 -42 c-36 -67 -52 -73 -179 -73 -104
0 -115 2 -141 24 -15 13 -36 46 -46 73 -16 45 -17 99 -15 713 l3 665 24 42
c13 23 38 49 55 57 43 21 196 21 240 1z m3350 0 c19 -9 43 -34 57 -58 l24 -42
3 -659 c2 -595 1 -665 -14 -713 -10 -33 -28 -63 -46 -78 -28 -23 -37 -25 -142
-25 -133 0 -150 8 -185 90 -21 50 -22 52 -19 717 l3 668 24 42 c13 23 38 49
55 57 43 21 196 21 240 1z m-3894 -786 l0 -430 -30 21 c-16 12 -42 42 -57 68
l-28 47 -3 265 c-4 314 1 352 60 416 22 24 44 44 49 44 5 0 9 -192 9 -431z
m4258 387 c59 -64 64 -102 60 -416 l-3 -265 -28 -47 c-15 -26 -41 -56 -57 -68
l-30 -21 0 430 c0 239 4 431 9 431 5 0 27 -20 49 -44z m-1632 -2175 c75 -49
70 -166 -7 -207 -43 -22 -311 -20 -350 3 -31 19 -59 68 -59 105 0 35 37 87 73
104 44 19 312 16 343 -5z"/>
</g>
</svg>
