<svg height="35" viewBox="0 0 45 35" width="45" xmlns="http://www.w3.org/2000/svg"><g fill="none"><path d="m1.77228193 0v.732h-.14347826l-.16603774-.5028-.16513535.5028h-.14438064v-.732h.10196882v.552l.15520919-.4764h.10557834l.15520919.4776v-.5532zm-.91050041 0v.6072h.18408532v.1236h-.46923708v-.1236h.18408531v-.6072z" fill="#0099df" transform="matrix(1 0 0 -1 42.246076 22.843205)"/><path d="m28.5094739 24.750324h-11.7560712v-21.20454229h11.7560712z" fill="#6c6bbd"/><path d="m17.0853261 13.7179636c0 4.301439 2.0066715 8.1330377 5.1315777 10.6022712-2.2851624 1.8056269-5.1691654 2.8833445-8.3034685 2.8833445-7.42015712 0-13.43504617-6.0376188-13.43504617-13.4856157 0-7.44799685 6.01488905-13.48561559 13.43504617-13.48561559 3.1343031 0 6.0183061 1.07771752 8.3034685 2.88334448-3.1249062 2.46923346-5.1315777 6.30083217-5.1315777 10.60227111" fill="#eb001b" transform="matrix(1 0 0 -1 .421198 27.864302)"/><path d="m22.2109239 13.7179636c0-7.44799685-6.014889-13.48561559-13.43504616-13.48561559-3.13430307 0-6.01830611 1.07771752-8.30432274 2.88334448 3.12576041 2.46923346 5.13243196 6.30083217 5.13243196 10.60227111 0 4.301439-2.00667155 8.1330377-5.13243196 10.6022712 2.28601663 1.8056269 5.17001967 2.8833445 8.30432274 2.8833445 7.42015716 0 13.43504616-6.0376188 13.43504616-13.4856157" fill="#0099df" transform="matrix(1 0 0 -1 22.153733 27.864302)"/><g fill="#231f20"><path d="m24.7737228 4.28686364c.1563308 0 .3810028-.03000805.5527103-.09774049l-.2391945-.73391106c-.1640192.06773245-.3280383.09002414-.4852233.09002414-.5074342 0-.7611513-.32923113-.7611513-.92081831v-2.00796693h-.776528v3.58038851h.7688396v-.43468797c.2016069.31465579.4929117.52471211.9405472.52471211zm-2.8686262-.8016435h-1.2685855v-1.61786234c0-.35923917.1264314-.59930354.5151226-.59930354.2016068 0 .4553239.06773245.6859758.20233997l.2238178-.66617861c-.2460287-.17233192-.6338656-.27778876-.9695922-.27778876-.9183363 0-1.2386862.49470406-1.2386862 1.3263556v1.63243768h-.7244178v.71161936h.7244178v1.08629125h.7833622v-1.08629125h1.2685855zm-9.9342629-.7639191c.0828639.51699575.3955253.86937594.9482356.86937594.4997458 0 .8209499-.31465579.9029595-.86937594zm2.6576225-.31465579c-.0076884 1.11629929-.6945185 1.88021839-1.6948644 1.88021839-1.0447676 0-1.7760196-.7639191-1.7760196-1.88021839 0-1.13773361.7611513-1.87936102 1.8289842-1.87936102.5373335 0 1.0293909.13460752 1.4625039.50156304l-.3810028.57701185c-.2981389-.24006437-.6791417-.37467188-1.0370793-.37467188-.4997458 0-.9550697.23234801-1.0669786.87623492h2.6490798c.0076884.09774049.0153768.19462361.0153768.29922309zm3.4102311.87623492c-.2161294.13546489-.6560765.30779681-1.1114005.30779681-.4254246 0-.6791417-.15775658-.6791417-.42011263 0-.239207.2682396-.30693944.6039663-.35152282l.365626-.05229974c.776528-.1131732 1.2463745-.44240433 1.2463745-1.07171591 0-.68161132-.5971321-1.16859902-1.626523-1.16859902-.5826097 0-1.1199432.15004022-1.5453678.46469601l.365626.60701989c.2614055-.20233996.6500967-.37467188 1.1874302-.37467188.5296451 0 .8132615.15689921.8132615.43468797 0 .2014826-.2016069.3146558-.6270315.37381451l-.365626.05229974c-.798739.1131732-1.231852.47241237-1.231852 1.0562832 0 .71161936.5826096 1.14630734 1.4855691 1.14630734.5672329 0 1.0823554-.12774854 1.4548155-.37467189zm9.5720539.2640708c-.1597478 0-.3075358-.0282933-.4450727-.08402252-.1366826-.0565866-.2554256-.1354649-.3553748-.23663488s-.1785417-.22291691-.2357775-.36438341-.0854266-.29750833-.0854266-.46726813c0-.17061718.0281908-.32580164.0854266-.46726814s.1358283-.26321343.2357775-.36438341.2186922-.18004827.3553748-.23663487c.1375369-.0565866.2853249-.08402253.4450727-.08402253s.3083902.02743593.4450728.08402253c.1375368.0565866.2571341.13546489.3570833.23663487.1016577.10116998.1802502.22291691.2383403.36438341.0572358.1414665.0854266.29665096.0854266.46726814 0 .1697598-.0281908.32580163-.0854266.46726813-.0580901.1414665-.1366826.26321343-.2383403.36438341-.0999492.10116998-.2195465.18004828-.3570833.23663488-.1366826.05572922-.285325.08402252-.4450728.08402252zm0 .73991267c.2767823 0 .5330622-.04801288.7688397-.14489599.2357775-.09602575.4399471-.22891852.6116547-.39782095.1725618-.16890243.3066816-.36867027.4040679-.59844616.0973864-.23063327.1460796-.4809861.1460796-.75105851s-.0486932-.52042525-.1460796-.75105851c-.0973863-.22977589-.2315061-.43040111-.4040679-.59930354-.1717076-.16890242-.3758772-.30093782-.6116547-.39782094-.2357775-.09602575-.4920574-.14403862-.7688397-.14403862s-.5330622.04801287-.7688397.14403862c-.2357775.09688312-.4382386.22891852-.6090918.39782094-.1708533.16890243-.3049731.36952765-.4023595.59930354-.0973863.23063326-.1460795.4809861-.1460795.75105851s.0486932.52042524.1460795.75105851c.0973864.22977589.2315062.42954373.4023595.59844616.1708532.16890243.3733143.3017952.6090918.39782095.2357775.09688311.4920574.14489599.7688397.14489599zm-20.17435302-1.88021839c0 .62931158.41090209 1.14630733 1.08235541 1.14630733.64155399 0 1.07466701-.49470406 1.07466701-1.14630733 0-.65160328-.43311302-1.14544997-1.07466701-1.14544997-.67145332 0-1.08235541.51613838-1.08235541 1.14544997zm2.88827442 0v1.79019425h-.77567385v-.43468797c-.24688296.32237214-.61934307.52471211-1.12677726.52471211-1.00034584 0-1.78370804-.78621079-1.78370804-1.88021839 0-1.09315023.7833622-1.88021839 1.78370804-1.88021839.50743419 0 .8798943.20233996 1.12677726.5247121v-.43468797h.77567385zm-4.37298926-1.79019426v2.24717392c0 .84622688-.5373335 1.41552237-1.40270527 1.42323873-.45532394.00771635-.92602467-.13460752-1.25406293-.63702794-.2460287.39696357-.63471987.63702794-1.17974177.63702794-.38014851 0-.75346288-.11231583-1.04476769-.53157109v.44154695h-.7756738v-3.58038851h.7833622v1.98481786c0 .62159523.34341505.95168373.87306016.95168373.51512258 0 .77652807-.33694748.77652807-.94396737v-1.99253422h.7833622v1.98481786c0 .62159523.35879185.95168373.87306016.95168373.53049938 0 .78421647-.33694748.78421647-.94396737v-1.99253422z" transform="matrix(1 0 0 -1 7.699547 35.025078)"/><path d="m.9751169 1.04136357v-.1236h.11358696c.02510869 0 .04663043.006.06097826.0156.01554348.0096.02391304.0264.02391304.0468s-.00836956.036-.02391304.0456c-.01434783.0108-.03586957.0156-.06097826.0156zm.11478261.0864c.05858696 0 .10402174-.0132.13630435-.0396s.04782609-.0624.04782609-.108c0-.0384-.01195653-.0696-.03826087-.0948-.0251087-.024-.06217392-.0396-.10880435-.0456l.15065217-.174h-.11717391l-.13989131.1728h-.04543478v-.1728h-.09804348v.462zm-.0298913-.6204c.05380434 0 .10402174.0096.14945652.03.04663043.0204.08728261.048.12195652.0828s.06217391.0756.0825.1236c.01913043.0468.0298913.0972.0298913.1512s-.01076087.1044-.0298913.1512c-.02032609.0468-.04782609.0888-.0825.1236s-.07532609.0624-.12195652.0816c-.04543478.0204-.09565218.03-.14945652.03-.05380435 0-.10521739-.0096-.15184783-.03-.04782609-.0192-.08967391-.0468-.12434783-.0816-.03467391-.0348-.06217391-.0768-.08130434-.1236-.02032609-.0468-.02989131-.0972-.02989131-.1512s.00956522-.1044.02989131-.1512c.01913043-.048.04663043-.0888.08130434-.1236.03467392-.0348.07652174-.0624.12434783-.0828.04663044-.0204.09804348-.03.15184783-.03zm0 .8856c.07054347 0 .13510869-.0132.19608695-.0396.06217392-.0252.11478261-.0612.16141305-.1068.04543478-.0444.08130434-.0972.10760869-.1584.02630435-.06.03945652-.1248.03945652-.1932s-.01315217-.1332-.03945652-.1932-.06217391-.1128-.10760869-.1572c-.04663044-.0456-.09923913-.0816-.16141305-.108-.06097826-.0264-.12554348-.0396-.19608695-.0396-.07173913 0-.1375.0132-.19967392.0396-.06217391.0264-.11597826.0624-.16141304.108-.04543478.0444-.08130435.0972-.1076087.1572-.02630434.06-.03945652.1248-.03945652.1932s.01315218.1332.03945652.1932c.02630435.0612.06217392.114.1076087.1584.04543478.0456.09923913.0816.16141304.1068.06217392.0264.12793479.0396.19967392.0396z" transform="matrix(1 0 0 -1 37.22299 34.997643)"/></g></g></svg>