<svg height="16" viewBox="0 0 90 16" width="90" xmlns="http://www.w3.org/2000/svg"><g fill="none" fill-rule="evenodd"><path d="m12.341224.44649104h-.1683603c-.8704849 0-1.2069976.21552582-1.5699076 1.01086407-.0345034.08095258-3.45221707 8.11299262-3.72346418 8.68487669-.03325635.066765-.07669746.1719199-.12076213.2872982-.06235566-.1485521-.12200924-.2806217-.15339492-.3436312-.2178291-.43751945-2.49360277-5.83442778-3.6764896-8.64836455-.33422633-.67140569-.65327945-.99104321-1.56076213-.99104321h-.16836028c-.54415704 0-.79877598.26768599-.90207852.4272961-.18706697.2887587-.1943418.67975132-.01330254 1.08826976.19184758.38473341 5.72050808 12.4041054 5.77330254 12.5188577.21928407.5028241.56182448.5572793.69879908.5572793.13697459 0 .47951501-.0544552.69568129-.5503941.05570439-.120803 5.56586609-12.07257535 5.83461889-12.64258168.1515243-.30711907.1430024-.62592202-.0245265-.89778082-.1845728-.29960801-.5545497-.50094626-.9209931-.50094626" fill="#26266c"/><path d="m25.3355196.44649104h-.0559122c-.6807159 0-1.2344342.55581876-1.2344342 1.23911697v7.2398314c0 2.72401269-1.8444804 3.69064489-3.424157 3.69064489-1.5798846 0-3.4243649-.9666322-3.4243649-3.69064489v-7.2398314c0-.68329821-.5535104-1.23911697-1.2344342-1.23911697h-.0841801c-.680716 0-1.2344342.55581876-1.2344342 1.23911697v7.35249736c0 4.42380823 3.0876443 6.00008853 5.9774134 6.00008853 1.3955196 0 5.9491455-.4327208 5.9491455-6.00008853v-7.35249736c0-.68329821-.5537183-1.23911697-1.2346421-1.23911697" fill="#26266c"/><path d="m33.5479677 5.24042782c-.1831178-.07928346-.3302772-.14291886-.4215243-.1856902-.417575-.20968388-.9725404-.55644468-.9725404-1.14376818 0-.85521812.8709007-1.38057534 1.4952887-1.38057534.7285219 0 .9035335.14604847 1.1456813.34822128l.0858429.07072919c.0687991.05320338.1432102.11975975.2228176.19048894.427552.37930875 1.2232101 1.08493151 2.0818476.47736986.5663972-.3657471.7349653-1.03777871.3988683-1.60236038-.5491455-.89402529-2.068545-1.58024446-3.2451963-1.83916754-.4200693-.09534879-1.2213395-.10640675-1.9627483.06196628-.5545496.15689779-1.0500692.31212645-1.497575.62341833-1.0296998.72106217-1.6204157 1.83290833-1.6204157 3.04990938 0 1.65389463.9584065 2.5314373 1.6877598 3.05345627.5599538.37993467 1.1438106.58085564 1.7617552.79366913.5439492.18735932 1.1066051.38097787 1.6856813.71313382 1.3973903.82433931 1.822448 1.34489779 1.7486605 2.14461754-.0785681.9251127-1.075843 2.0002381-2.2437644 2.0002381-1.1294689 0-1.950485-.3964173-2.666328-1.2902339-.039284-.0473615-.0821016-.1118314-.1313626-.1840211-.2866281-.4214542-.9581986-1.40832456-2.1537644-.8508367-1.0253349.4809168-.7788222 1.453391-.6015242 1.7728198 1.2537644 2.00149 3.0701847 2.9743815 5.5529792 2.9743815 1.7800462 0 3.2678522-.682255 4.1892609-1.9211633.9511317-1.2789674 1.1529562-3.0225775.5131871-4.44425505-.7096074-1.55145205-3.6430254-2.82186512-5.0528868-3.43234773" fill="#26266c"/><path d="m47.5108545 12.6154584c-2.6621709 0-4.9115473-2.3094436-4.9115473-5.04284512 0-2.73361012 2.2493764-5.0428451 4.9115473-5.0428451 2.7083141 0 4.9115473 2.26208219 4.9115473 5.0428451 0 2.78055422-2.2032332 5.04284512-4.9115473 5.04284512zm0-12.50779981c-4.1005081 0-7.4365358 3.34868282-7.4365358 7.46495469 0 4.11606322 3.3360277 7.46474602 7.4365358 7.46474602 4.116097 0 7.4648037-3.3486828 7.4648037-7.46474602 0-4.11627187-3.3487067-7.46495469-7.4648037-7.46495469z" fill="#26266c"/><path d="m54.070254 8.0610411c-3.9572979-2.40354057-7.0985681-.20238146-6.6049191.98687039 3.2778291-1.70083878 4.1298152 1.72441521 7.997321 1.85418971 3.4617783-.1249758 4.6924711-2.12271026 4.602679-3.88989677-.0700462-1.37452477-1.6833949 3.66748577-5.9950809 1.04883667" fill="#ecab2c"/><g fill="#26266c"><path d="m63.1596305 6.03722655c-.3161432-.29355742-.4774365-.67683034-.4774365-1.14981875 0-.47319705.1612933-.85041939.4774365-1.1320843.3221709-.28708957.7039954-.43105163 1.1512933-.43105163.3277829 0 .6202309.06593045.883164.19779135v.71855849c-.2571132-.11975975-.5136028-.17963962-.7578291-.17963962-.2629331 0-.4832564.07761433-.6622171.23346891-.1733488.14959536-.2627252.35322866-.2627252.59879874 0 .24536143.0893764.44920337.268545.60484931.1789608.15585459.3999077.23346892.6563973.23346892.3040877 0 .5726328-.06572182.8054272-.20342466v.71834984c-.2803926.15001265-.5907159.2215764-.9428175.2215764-.4410624 0-.8228869-.14354479-1.1392379-.430843"/><path d="m66.5677829 6.39045522v-2.28148578h-.9307621v-.7068746h2.7143418v.7068746h-.942194v2.28148578z"/><path d="m69.6893072 4.50997682v.77843835c.1373903.25767124.4113395.4431528.7397459.4431528.2325866 0 .4294227-.07761433.5784527-.23931086.1492378-.16190516.2269746-.35948788.2269746-.59295679 0-.23972814-.0777368-.43710222-.2269746-.59879874-.14903-.16190516-.3458661-.23951949-.5784527-.23951949-.3284064 0-.6023556.19153214-.7397459.44899473zm1.9804157-.730451c.268545.29939936.3996997.67077976.3996997 1.1197745 0 .44315279-.1311547.81432455-.3996997 1.1197745-.2623095.29939936-.5965358.44899473-1.0020555.44899473-.4236027 0-.7457736-.14959537-.9783602-.44294415v1.56292729h-.8413857v-4.18595785h.8413857v.36553846c.2205311-.29355743.5489376-.44336143.9783602-.44336143.4055197 0 .739746.149804 1.0020555.45525395z"/><path d="m74.4817552 5.2105922c-.172933-.11391781-.3760046-.17358904-.620231-.17358904-.3581293 0-.584896.14354479-.584896.38911486 0 .26351317.2205312.3893235.5308545.3893235.292448 0 .5187991-.10181665.6742725-.30544995zm1.2167667.49114015v.61674183c-.1072517.08387355-.2564896.12581033-.4531177.12581033-.3400462 0-.5609931-.12581033-.6742726-.38327292-.2623094.26935511-.6023556.40705796-1.0259584.40705796-.6445496 0-1.0976674-.39516544-1.0976674-1.00001476 0-.31713382.1130716-.56291253.345866-.730451.2325866-.1677471.5069515-.25162065.8291224-.25162065.3342264 0 .6208545.06008851.859261.18589884v-.08992413c0-.37722234-.2627252-.56291254-.7873441-.56291254-.3163511 0-.6208545.08366491-.9010393.25141201v-.70666596c.3045035-.16169652.6682448-.23951949 1.1034873-.23951949.4236028 0 .7694688.10202528 1.0263742.31129188.2623094.20968388.3934642.49719073.3934642.86252055v1.01190727c0 .149804.0719168.22783562.2088914.22783562.0715012 0 .1311547-.01210116.172933-.03609484z"/><path d="m77.0190069 3.40209484.596328.83852687.6029792-.83852687h.9301386l-1.0438338 1.42522444 1.1336259 1.56313594h-.9428175l-.6917321-.95828662-.6979677.95828662h-.9307621l1.1396535-1.55687672-1.0380138-1.43148366z"/><path d="m81.1190993 5.73156797c.2386143 0 .4358661-.07761433.5907159-.23931086.1550578-.16190516.2327945-.35948788.2327945-.59900737 0-.2395195-.0777367-.43710222-.2327945-.59274816-.1548498-.16190516-.3521016-.23951949-.5907159-.23951949-.2384065 0-.4350346.07761433-.5905081.23951949-.1550577.15564594-.2327944.35322866-.2327944.59274816 0 .23951949.0777367.43710221.2327944.59900737.1554735.16169653.3521016.23931086.5905081.23931086zm-1.1870439-1.95204215c.3103234-.30544995.7037876-.45525395 1.1870439-.45525395.4834642 0 .8769284.149804 1.1872517.45525395.3105312.3052413.4653811.6766217.4653811 1.11372392 0 .44920337-.1548499.82037513-.4653811 1.12582508-.3103233.29939936-.7037875.44899473-1.1872517.44899473-.4832563 0-.8767205-.14959537-1.1870439-.44899473-.3105312-.30544995-.465381-.67662171-.465381-1.12582508 0-.44294416.1548498-.81432456.465381-1.11372392z"/><path d="m84.223164 5.79749842h.7160508c.292448 0 .4356582-.11370917.4356582-.33528556 0-.2215764-.1432102-.33549421-.4356582-.33549421h-.7160508zm0-1.20364805h.584896c.2687529 0 .3996998-.10160801.3996998-.30524131 0-.20384194-.1309469-.30544995-.3996998-.30544995h-.584896zm-.8291224 1.79660485v-2.98836038h1.6827713c.620231 0 .9544573.32944362.9544573.76654583 0 .29939937-.119515.50908325-.3639492.63489358.3755889.13165226.5663972.38932349.5663972.76654583 0 .50282403-.3934642.82037514-1.085612.82037514z"/><path d="m88.6757737 5.2105922c-.1729331-.11391781-.3760046-.17358904-.6204388-.17358904-.3579215 0-.5848961.14354479-.5848961.38911486 0 .26351317.2205312.3893235.5310624.3893235.292448 0 .518799-.10181665.6742725-.30544995zm1.2167667.49114015v.61674183c-.1074596.08387355-.2564896.12581033-.4533256.12581033-.3398384 0-.5609931-.12581033-.6740647-.38327292-.2623095.26935511-.6023556.40705796-1.0259584.40705796-.6445497 0-1.0978753-.39516544-1.0978753-1.00001476 0-.31713382.1132794-.56291253.345866-.730451.2327945-.1677471.5071594-.25162065.8291224-.25162065.3342264 0 .6208546.06008851.8594689.18589884v-.08992413c0-.37722234-.2629331-.56291254-.787552-.56291254-.3161432 0-.6206466.08366491-.9010393.25141201v-.70666596c.3045035-.16169652.6684527-.23951949 1.1036952-.23951949.4236028 0 .7694688.10202528 1.0263741.31129188.2623095.20968388.3934642.49719073.3934642.86252055v1.01190727c0 .149804.0719169.22783562.2088915.22783562.0715011 0 .1311547-.01210116.172933-.03609484z"/><path d="m62.8788222 12.0823815v-2.98815178h.8413857v1.08993888l1.0259584-1.08993888h1.032194l-1.2945035 1.34740148 1.4975751 1.6407503h-1.0862356l-1.1749884-1.2875216v1.2875216z"/><path d="m67.6835335 11.4237028c.2386143 0 .4356582-.0778229.5907159-.2395194.1550578-.1616966.2325866-.3592793.2325866-.5990074 0-.2393109-.0775288-.4371022-.2325866-.59253954-.1550577-.16169652-.3521016-.23972814-.5907159-.23972814-.2384065 0-.4356582.07803162-.5907159.23972814-.1548499.15543734-.2325867.35322864-.2325867.59253954 0 .2397281.0777368.4373108.2325867.5990074.1550577.1616965.3523094.2395194.5907159.2395194zm-1.1872517-1.95225075c.3105311-.30544994.7039953-.45504531 1.1872517-.45504531.4832563 0 .8769284.14959537 1.1872517.45504531.3103233.30524131.4653811.67662175.4653811 1.11372395 0 .449412-.1550578.8205837-.4653811 1.1260337-.3103233.2993994-.7039954.4489947-1.1872517.4489947-.4832564 0-.8767206-.1495953-1.1872517-.4489947-.3103234-.30545-.4653811-.6766217-.4653811-1.1260337 0-.4429442.1550577-.81432458.4653811-1.11372395z"/><path d="m69.9582679 12.0823815v-2.98815178h.829746l.8646651 1.11393258.8709007-1.11393258h.8293302v2.98815178h-.7933718v-1.8443836l-.739746.9282424h-.3342263l-.7335104-.9282424v1.8443836z"/><path d="m74.1780831 12.0823815v-2.98815178h2.8700231v2.98815178h-.8413856v-2.28148582h-1.1872518v2.28148582z"/><path d="m79.6628868 10.9027271c-.172933-.1137092-.3760046-.1735891-.6202309-.1735891-.3581293 0-.5848961.1435448-.5848961.3891149 0 .2635132.2205312.3893235.5308545.3893235.2924481 0 .5187991-.1018167.6742725-.30545zm1.2167668.4909315v.6169505c-.1072518.0836649-.2564896.1256016-.4531178.1256016-.3400462 0-.5609931-.1256016-.6742725-.3830642-.2623095.2693551-.6023557.4070579-1.0259585.4070579-.6445496 0-1.0978752-.3951654-1.0978752-1.0000147 0-.3173425.1132794-.5627039.345866-.730451.2327945-.1677471.5071594-.2516207.8293303-.2516207.3342263 0 .6208545.0598799.8592609.1856902v-.0899241c0-.37722235-.2627251-.56291255-.7873441-.56291255-.316351 0-.6208545.08387355-.9012471.25162065v-.70645732c.3047113-.16190516.6684527-.23972814 1.1036952-.23972814.4236027 0 .7694688.10181665 1.0263741.31129189.2623095.20968388.3934642.49719073.3934642.86231187v1.0121159c0 .1495954.0719169.227627.2088915.227627.0715011 0 .1311547-.0118925.172933-.0360948z"/><path d="m81.4660046 12.0823815v-2.98815178h.8413857v1.10767338h1.2232102v-1.10767338h.8407621v2.98815178h-.8407621v-1.1736038h-1.2232102v1.1736038z"/><path d="m85.2385219 12.0825901h.8411779v-2.98836038h-.8411779zm.4177829-4.28798315c.2801848 0 .5011317.22178504.5011317.50908325 0 .28145627-.2209469.50303267-.5011317.50303267-.2803926 0-.5013394-.2215764-.5013394-.50303267 0-.28729821.2209468-.50908325.5013394-.50908325z"/><path d="m88.8189838 10.483568v-.73065968h-.6208545c-.2801847 0-.4472979.13186091-.4472979.36512118 0 .2336776.1671132.3655385.4472979.3655385zm-2.1358891 1.5988135.7996074-1.1377176c-.3938799-.1437535-.590716-.4371023-.590716-.8804637 0-.55686195.3876444-.96997048 1.1691686-.96997048h1.5985913v2.98815178h-.8407622v-.9881223h-.5071593l-.686328.9881223z"/></g></g></svg>